<mxfile host="app.diagrams.net" agent="Mozilla/5.0 (Windows NT 10.0; Win64; x64) AppleWebKit/537.36 (KHTML, like Gecko) Chrome/138.0.0.0 Safari/537.36 OPR/122.0.0.0" version="28.2.5">
  <diagram name="Page-1" id="OpJZzqRJzKKwa_3GQTI1">
    <mxGraphModel dx="2184" dy="1207" grid="0" gridSize="10" guides="1" tooltips="1" connect="1" arrows="1" fold="1" page="0" pageScale="1" pageWidth="850" pageHeight="1100" math="0" shadow="0">
      <root>
        <mxCell id="0" />
        <mxCell id="1" parent="0" />
        <mxCell id="95icM87AO489FpcOUcPt-1" value="&lt;font style=&quot;font-size: 34px;&quot;&gt;n&lt;/font&gt;" style="ellipse;whiteSpace=wrap;html=1;" vertex="1" parent="1">
          <mxGeometry x="-292" y="-101" width="120" height="80" as="geometry" />
        </mxCell>
        <mxCell id="95icM87AO489FpcOUcPt-2" value="&lt;font style=&quot;font-size: 34px;&quot;&gt;k&lt;/font&gt;" style="ellipse;whiteSpace=wrap;html=1;" vertex="1" parent="1">
          <mxGeometry x="-406" y="59" width="120" height="80" as="geometry" />
        </mxCell>
        <mxCell id="95icM87AO489FpcOUcPt-3" value="" style="endArrow=none;html=1;rounded=0;fontSize=12;startSize=8;endSize=8;curved=1;exitX=0.5;exitY=0;exitDx=0;exitDy=0;entryX=0.5;entryY=1;entryDx=0;entryDy=0;" edge="1" parent="1" source="95icM87AO489FpcOUcPt-2" target="95icM87AO489FpcOUcPt-1">
          <mxGeometry width="50" height="50" relative="1" as="geometry">
            <mxPoint x="92" y="214" as="sourcePoint" />
            <mxPoint x="142" y="164" as="targetPoint" />
          </mxGeometry>
        </mxCell>
        <mxCell id="95icM87AO489FpcOUcPt-4" value="&lt;font style=&quot;font-size: 34px;&quot;&gt;n - k&lt;/font&gt;" style="ellipse;whiteSpace=wrap;html=1;dashed=1;" vertex="1" parent="1">
          <mxGeometry x="-160" y="59" width="120" height="80" as="geometry" />
        </mxCell>
        <mxCell id="95icM87AO489FpcOUcPt-5" value="" style="endArrow=none;html=1;rounded=0;fontSize=12;startSize=8;endSize=8;curved=1;exitX=0.5;exitY=0;exitDx=0;exitDy=0;entryX=0.5;entryY=1;entryDx=0;entryDy=0;dashed=1;" edge="1" parent="1" source="95icM87AO489FpcOUcPt-4" target="95icM87AO489FpcOUcPt-1">
          <mxGeometry width="50" height="50" relative="1" as="geometry">
            <mxPoint x="92" y="214" as="sourcePoint" />
            <mxPoint x="142" y="164" as="targetPoint" />
          </mxGeometry>
        </mxCell>
        <mxCell id="95icM87AO489FpcOUcPt-6" value="&lt;font style=&quot;font-size: 34px;&quot;&gt;1&lt;/font&gt;" style="ellipse;whiteSpace=wrap;html=1;" vertex="1" parent="1">
          <mxGeometry x="-490" y="198" width="120" height="80" as="geometry" />
        </mxCell>
        <mxCell id="95icM87AO489FpcOUcPt-7" value="" style="endArrow=none;html=1;rounded=0;fontSize=12;startSize=8;endSize=8;curved=1;exitX=0.5;exitY=0;exitDx=0;exitDy=0;entryX=0.5;entryY=1;entryDx=0;entryDy=0;" edge="1" parent="1" source="95icM87AO489FpcOUcPt-6" target="95icM87AO489FpcOUcPt-2">
          <mxGeometry width="50" height="50" relative="1" as="geometry">
            <mxPoint x="-307" y="107" as="sourcePoint" />
            <mxPoint x="-193" y="27" as="targetPoint" />
          </mxGeometry>
        </mxCell>
        <mxCell id="95icM87AO489FpcOUcPt-8" value="&lt;font style=&quot;font-size: 34px;&quot;&gt;k - 1&lt;/font&gt;" style="ellipse;whiteSpace=wrap;html=1;dashed=1;" vertex="1" parent="1">
          <mxGeometry x="-311" y="198" width="120" height="80" as="geometry" />
        </mxCell>
        <mxCell id="95icM87AO489FpcOUcPt-9" value="" style="endArrow=none;html=1;rounded=0;fontSize=12;startSize=8;endSize=8;curved=1;exitX=0.5;exitY=0;exitDx=0;exitDy=0;entryX=0.5;entryY=1;entryDx=0;entryDy=0;dashed=1;" edge="1" parent="1" source="95icM87AO489FpcOUcPt-8" target="95icM87AO489FpcOUcPt-2">
          <mxGeometry width="50" height="50" relative="1" as="geometry">
            <mxPoint x="-23" y="374" as="sourcePoint" />
            <mxPoint x="-347" y="139" as="targetPoint" />
          </mxGeometry>
        </mxCell>
        <mxCell id="95icM87AO489FpcOUcPt-10" value="&lt;font style=&quot;font-size: 34px;&quot;&gt;n&lt;/font&gt;" style="ellipse;whiteSpace=wrap;html=1;" vertex="1" parent="1">
          <mxGeometry x="242" y="-90.5" width="120" height="80" as="geometry" />
        </mxCell>
        <mxCell id="95icM87AO489FpcOUcPt-11" value="&lt;span style=&quot;font-size: 34px;&quot;&gt;1&lt;/span&gt;" style="ellipse;whiteSpace=wrap;html=1;" vertex="1" parent="1">
          <mxGeometry x="128" y="69.5" width="120" height="80" as="geometry" />
        </mxCell>
        <mxCell id="95icM87AO489FpcOUcPt-12" value="" style="endArrow=none;html=1;rounded=0;fontSize=12;startSize=8;endSize=8;curved=1;exitX=0.5;exitY=0;exitDx=0;exitDy=0;entryX=0.5;entryY=1;entryDx=0;entryDy=0;" edge="1" parent="1" source="95icM87AO489FpcOUcPt-11" target="95icM87AO489FpcOUcPt-10">
          <mxGeometry width="50" height="50" relative="1" as="geometry">
            <mxPoint x="626" y="224.5" as="sourcePoint" />
            <mxPoint x="676" y="174.5" as="targetPoint" />
          </mxGeometry>
        </mxCell>
        <mxCell id="95icM87AO489FpcOUcPt-13" value="&lt;font style=&quot;font-size: 34px;&quot;&gt;n - 1&lt;/font&gt;" style="ellipse;whiteSpace=wrap;html=1;dashed=1;" vertex="1" parent="1">
          <mxGeometry x="374" y="69.5" width="120" height="80" as="geometry" />
        </mxCell>
        <mxCell id="95icM87AO489FpcOUcPt-14" value="" style="endArrow=none;html=1;rounded=0;fontSize=12;startSize=8;endSize=8;curved=1;exitX=0.5;exitY=0;exitDx=0;exitDy=0;entryX=0.5;entryY=1;entryDx=0;entryDy=0;dashed=1;" edge="1" parent="1" source="95icM87AO489FpcOUcPt-13" target="95icM87AO489FpcOUcPt-10">
          <mxGeometry width="50" height="50" relative="1" as="geometry">
            <mxPoint x="626" y="224.5" as="sourcePoint" />
            <mxPoint x="676" y="174.5" as="targetPoint" />
          </mxGeometry>
        </mxCell>
        <mxCell id="95icM87AO489FpcOUcPt-19" value="&lt;font style=&quot;font-size: 34px;&quot;&gt;k - 1&lt;/font&gt;" style="ellipse;whiteSpace=wrap;html=1;" vertex="1" parent="1">
          <mxGeometry x="259" y="198" width="120" height="80" as="geometry" />
        </mxCell>
        <mxCell id="95icM87AO489FpcOUcPt-20" value="" style="endArrow=none;html=1;rounded=0;fontSize=12;startSize=8;endSize=8;curved=1;exitX=0.5;exitY=0;exitDx=0;exitDy=0;entryX=0.5;entryY=1;entryDx=0;entryDy=0;" edge="1" parent="1" source="95icM87AO489FpcOUcPt-19" target="95icM87AO489FpcOUcPt-13">
          <mxGeometry width="50" height="50" relative="1" as="geometry">
            <mxPoint x="92" y="214" as="sourcePoint" />
            <mxPoint x="142" y="164" as="targetPoint" />
          </mxGeometry>
        </mxCell>
        <mxCell id="95icM87AO489FpcOUcPt-21" value="&lt;font style=&quot;font-size: 34px;&quot;&gt;n - 1 - (k - 1)&lt;/font&gt;" style="ellipse;whiteSpace=wrap;html=1;dashed=1;" vertex="1" parent="1">
          <mxGeometry x="453" y="200.5" width="209" height="75" as="geometry" />
        </mxCell>
        <mxCell id="95icM87AO489FpcOUcPt-22" value="" style="endArrow=none;html=1;rounded=0;fontSize=12;startSize=8;endSize=8;curved=1;exitX=0.5;exitY=0;exitDx=0;exitDy=0;entryX=0.5;entryY=1;entryDx=0;entryDy=0;dashed=1;" edge="1" parent="1" source="95icM87AO489FpcOUcPt-21" target="95icM87AO489FpcOUcPt-13">
          <mxGeometry width="50" height="50" relative="1" as="geometry">
            <mxPoint x="92" y="214" as="sourcePoint" />
            <mxPoint x="142" y="164" as="targetPoint" />
          </mxGeometry>
        </mxCell>
      </root>
    </mxGraphModel>
  </diagram>
</mxfile>
